<svg xmlns="http://www.w3.org/2000/svg" xmlns:xlink="http://www.w3.org/1999/xlink" width="100" height="100" viewBox="0 0 100 100">
  <defs>
    <filter id="Ellipse_13" x="0" y="0" width="100" height="100" filterUnits="userSpaceOnUse">
      <feOffset dx="4" dy="4" input="SourceAlpha"/>
      <feGaussianBlur stdDeviation="7.5" result="blur"/>
      <feFlood flood-color="#39ecff" flood-opacity="0.4"/>
      <feComposite operator="in" in2="blur"/>
      <feComposite in="SourceGraphic"/>
    </filter>
  </defs>
  <g id="Group_20" data-name="Group 20" transform="translate(-202.682 -832.052)">
    <g id="Group_40" data-name="Group 40">
      <g transform="matrix(1, 0, 0, 1, 202.68, 832.05)" filter="url(#Ellipse_13)">
        <circle id="Ellipse_13-2" data-name="Ellipse 13" cx="27.5" cy="27.5" r="27.5" transform="translate(18.5 18.5)" fill="#39ecff"/>
      </g>
      <g id="Group_19" data-name="Group 19">
        <g id="Group_18" data-name="Group 18">
          <g id="Group_17" data-name="Group 17">
            <path id="Path_33" data-name="Path 33" d="M243.234,885.864a9.5,9.5,0,0,1-1.11-4.626,5.608,5.608,0,0,1,11.2,0,.6.6,0,1,0,1.2,0,6.806,6.806,0,0,0-13.6,0,10.679,10.679,0,0,0,1.266,5.214,12.574,12.574,0,0,0,2.412,3.162.6.6,0,0,0,.426.18.538.538,0,0,0,.414-.18.592.592,0,0,0,.006-.846A11.376,11.376,0,0,1,243.234,885.864Z" fill="#3b78ff"/>
            <path id="Path_34" data-name="Path 34" d="M241.05,868.944a14.026,14.026,0,0,1,13.368.006.643.643,0,0,0,.276.066h0a.6.6,0,0,0,.276-1.134,15.246,15.246,0,0,0-14.5.006.6.6,0,1,0,.576,1.056Z" fill="#3b78ff"/>
            <path id="Path_35" data-name="Path 35" d="M247.68,871.848a9.967,9.967,0,0,0-9.012,5.514,8.885,8.885,0,0,0-.822,3.882,13.361,13.361,0,0,0,.876,4.746.6.6,0,0,0,1.128-.42,11.972,11.972,0,0,1-.8-4.326,7.708,7.708,0,0,1,.7-3.366,8.754,8.754,0,0,1,7.932-4.836,8.467,8.467,0,0,1,8.694,8.2,2.5,2.5,0,0,1-4.992,0,3.7,3.7,0,0,0-7.392,0,8.785,8.785,0,0,0,2.6,6.264,9.165,9.165,0,0,0,4.458,2.52.447.447,0,0,0,.156.024.6.6,0,0,0,.156-1.176,8.1,8.1,0,0,1-3.93-2.214,7.592,7.592,0,0,1-2.244-5.412,2.5,2.5,0,0,1,4.992,0,3.7,3.7,0,0,0,7.392,0A9.67,9.67,0,0,0,247.68,871.848Z" fill="#3b78ff"/>
            <path id="Path_36" data-name="Path 36" d="M258.414,874.332a12.554,12.554,0,0,0-4.5-3.9,13.846,13.846,0,0,0-12.378.012,12.5,12.5,0,0,0-4.506,3.93.6.6,0,0,0,.144.834.625.625,0,0,0,.348.108.611.611,0,0,0,.492-.246,11.268,11.268,0,0,1,4.074-3.558,12.626,12.626,0,0,1,11.28-.012,11.265,11.265,0,0,1,4.068,3.528.6.6,0,0,0,.84.138A.6.6,0,0,0,258.414,874.332Z" fill="#3b78ff"/>
            <path id="Path_37" data-name="Path 37" d="M254.88,886.26a7.878,7.878,0,0,1-1.254.114,5.192,5.192,0,0,1-5.37-5.13.6.6,0,1,0-1.2,0,6.4,6.4,0,0,0,2.85,5.268,6.518,6.518,0,0,0,3.72,1.062,8.593,8.593,0,0,0,1.464-.132.6.6,0,1,0-.21-1.182Z" fill="#3b78ff"/>
          </g>
        </g>
      </g>
    </g>
  </g>
</svg>
