<svg xmlns="http://www.w3.org/2000/svg" xmlns:xlink="http://www.w3.org/1999/xlink" width="100" height="100" viewBox="0 0 100 100">
  <defs>
    <filter id="Ellipse_12" x="0" y="0" width="100" height="100" filterUnits="userSpaceOnUse">
      <feOffset dx="4" dy="4" input="SourceAlpha"/>
      <feGaussianBlur stdDeviation="7.5" result="blur"/>
      <feFlood flood-color="#ffce00" flood-opacity="0.4"/>
      <feComposite operator="in" in2="blur"/>
      <feComposite in="SourceGraphic"/>
    </filter>
  </defs>
  <g id="Group_16" data-name="Group 16" transform="translate(-385.57 -945)">
    <g id="Group_41" data-name="Group 41">
      <g transform="matrix(1, 0, 0, 1, 385.57, 945)" filter="url(#Ellipse_12)">
        <circle id="Ellipse_12-2" data-name="Ellipse 12" cx="27.5" cy="27.5" r="27.5" transform="translate(18.5 18.5)" fill="#ffce00"/>
      </g>
      <g id="Group_15" data-name="Group 15">
        <path id="Path_29" data-name="Path 29" d="M439.481,1003.651H423.66a2.64,2.64,0,0,1-2.637-2.637V988.708a2.64,2.64,0,0,1,2.637-2.637h15.821a2.641,2.641,0,0,1,2.637,2.637v12.306A2.641,2.641,0,0,1,439.481,1003.651ZM423.66,987.829a.88.88,0,0,0-.879.879v12.306a.88.88,0,0,0,.879.879h15.821a.88.88,0,0,0,.879-.879V988.708a.88.88,0,0,0-.879-.879Z"/>
        <path id="Path_30" data-name="Path 30" d="M437.723,987.829a.879.879,0,0,1-.879-.879v-4.394a5.274,5.274,0,1,0-10.548,0v4.394a.879.879,0,0,1-1.758,0v-4.394a7.032,7.032,0,1,1,14.064,0v4.394A.879.879,0,0,1,437.723,987.829Z"/>
        <path id="Path_31" data-name="Path 31" d="M431.57,995.447a2.344,2.344,0,1,1,2.344-2.344A2.346,2.346,0,0,1,431.57,995.447Zm0-2.93a.586.586,0,1,0,.586.586A.587.587,0,0,0,431.57,992.517Z"/>
        <path id="Path_32" data-name="Path 32" d="M431.57,998.963a.88.88,0,0,1-.879-.879v-3.223a.879.879,0,1,1,1.758,0v3.223A.88.88,0,0,1,431.57,998.963Z"/>
      </g>
    </g>
  </g>
</svg>
