<svg xmlns="http://www.w3.org/2000/svg" xmlns:xlink="http://www.w3.org/1999/xlink" width="100" height="100" viewBox="0 0 100 100">
  <defs>
    <filter id="Ellipse_11" x="0" y="0" width="100" height="100" filterUnits="userSpaceOnUse">
      <feOffset dx="4" dy="4" input="SourceAlpha"/>
      <feGaussianBlur stdDeviation="7.5" result="blur"/>
      <feFlood flood-color="#6b00a3" flood-opacity="0.4"/>
      <feComposite operator="in" in2="blur"/>
      <feComposite in="SourceGraphic"/>
    </filter>
  </defs>
  <g id="Group_42" data-name="Group 42" transform="translate(-201.429 -1048.865)">
    <g id="Group_14" data-name="Group 14">
      <g transform="matrix(1, 0, 0, 1, 201.43, 1048.87)" filter="url(#Ellipse_11)">
        <circle id="Ellipse_11-2" data-name="Ellipse 11" cx="27.5" cy="27.5" r="27.5" transform="translate(18.5 18.5)" fill="#6b00a3"/>
      </g>
    </g>
    <g id="Group_21" data-name="Group 21">
      <path id="Path_38" data-name="Path 38" d="M252.5,1103.865h-6.525a.75.75,0,0,1-.75-.75v-1.86l-1.252.376a1.639,1.639,0,0,1-.535.082,1.834,1.834,0,0,1-1.838-1.826v-1.761h-1.063a1.108,1.108,0,0,1-.939-1.7l1.7-2.664a1.928,1.928,0,0,0,.306-1.045,6.913,6.913,0,0,1,13.825,0,6.767,6.767,0,0,1-1.259,3.938,4.912,4.912,0,0,0-.916,2.859v3.6a.75.75,0,0,1-.75.75Zm-5.775-1.5h5.025v-2.855a6.41,6.41,0,0,1,1.193-3.729,5.272,5.272,0,0,0,.981-3.068,5.412,5.412,0,0,0-10.824,0,3.451,3.451,0,0,1-.541,1.853l-1.312,2.06h1.1a.75.75,0,0,1,.75.75v2.511a.332.332,0,0,0,.338.326c.01,0,.093-.015.1-.018l2.218-.667a.75.75,0,0,1,.966.718v2.118Z" fill="#fff"/>
      <path id="Path_39" data-name="Path 39" d="M258.929,1094.365h-23a.75.75,0,0,1,0-1.5h23a.75.75,0,0,1,0,1.5Z" fill="#fff"/>
      <path id="Path_40" data-name="Path 40" d="M236.179,1089.365a.75.75,0,0,1-.75-.75v-3a2.752,2.752,0,0,1,2.75-2.75h3a.75.75,0,0,1,0,1.5h-3a1.252,1.252,0,0,0-1.25,1.25v3A.75.75,0,0,1,236.179,1089.365Z" fill="#fff"/>
      <path id="Path_41" data-name="Path 41" d="M241.179,1106.865h-3a2.752,2.752,0,0,1-2.75-2.75v-3a.75.75,0,0,1,1.5,0v3a1.252,1.252,0,0,0,1.25,1.25h3a.75.75,0,0,1,0,1.5Z" fill="#fff"/>
      <path id="Path_42" data-name="Path 42" d="M258.679,1089.365a.75.75,0,0,1-.75-.75v-3a1.252,1.252,0,0,0-1.25-1.25h-3a.75.75,0,0,1,0-1.5h3a2.752,2.752,0,0,1,2.75,2.75v3A.75.75,0,0,1,258.679,1089.365Z" fill="#fff"/>
      <path id="Path_43" data-name="Path 43" d="M256.679,1106.865h-3a.75.75,0,0,1,0-1.5h3a1.252,1.252,0,0,0,1.25-1.25v-3a.75.75,0,0,1,1.5,0v3A2.752,2.752,0,0,1,256.679,1106.865Z" fill="#fff"/>
    </g>
  </g>
</svg>
