<svg xmlns="http://www.w3.org/2000/svg" xmlns:xlink="http://www.w3.org/1999/xlink" width="245.717" height="277.015" viewBox="0 0 245.717 277.015">
  <defs>
    <linearGradient id="linear-gradient" x1="-0.27" y1="1.031" x2="1.11" y2="-0.048" gradientUnits="objectBoundingBox">
      <stop offset="0" stop-color="#14e5ef"/>
      <stop offset="1" stop-color="#6b00a3"/>
    </linearGradient>
  </defs>
  <g id="Group_39" data-name="Group 39" transform="translate(-186.228 -848.225)">
    <g id="Group_13" data-name="Group 13">
      <path id="Path_27" data-name="Path 27" d="M356.32,949.039l-47.514-19.727a4.849,4.849,0,0,0-3.718,0l-47.513,19.727a4.849,4.849,0,0,0-2.99,4.478V977.5a81.193,81.193,0,0,0,50.53,75.2,4.844,4.844,0,0,0,3.665,0,81.192,81.192,0,0,0,50.529-75.2V953.517A4.848,4.848,0,0,0,356.32,949.039ZM349.613,977.5a71.512,71.512,0,0,1-42.666,65.446A71.515,71.515,0,0,1,264.282,977.5V956.754l42.665-17.715,42.666,17.715ZM301.588,993.84,322.428,973a4.848,4.848,0,1,1,6.856,6.857l-24.267,24.267a4.849,4.849,0,0,1-6.857,0l-13.549-13.55a4.848,4.848,0,0,1,6.856-6.856Z" fill="url(#linear-gradient)"/>
    </g>
    <path id="Path_28" data-name="Path 28" d="M186.6,929.232v115a22.888,22.888,0,0,0,11.445,19.823l99.593,57.5a22.89,22.89,0,0,0,22.89,0l99.594-57.5a22.89,22.89,0,0,0,11.445-19.823v-115a22.89,22.89,0,0,0-11.445-19.823l-99.594-57.5a22.889,22.889,0,0,0-22.89,0l-99.593,57.5A22.888,22.888,0,0,0,186.6,929.232Z" fill="none" stroke="#6b00a3" stroke-miterlimit="10" stroke-width="0.75"/>
  </g>
</svg>
