<svg xmlns="http://www.w3.org/2000/svg" xmlns:xlink="http://www.w3.org/1999/xlink" width="71.901" height="71.901" viewBox="0 0 71.901 71.901">
  <defs>
    <filter id="Ellipse_1" x="0" y="0" width="71.901" height="71.901" filterUnits="userSpaceOnUse">
      <feOffset dx="4" dy="4" input="SourceAlpha"/>
      <feGaussianBlur stdDeviation="5" result="blur"/>
      <feFlood flood-opacity="0.251"/>
      <feComposite operator="in" in2="blur"/>
      <feComposite in="SourceGraphic"/>
    </filter>
  </defs>
  <g id="Group_37" data-name="Group 37" transform="translate(-863.991 -152.021)">
    <g id="Group_43" data-name="Group 43">
      <g transform="matrix(1, 0, 0, 1, 863.99, 152.02)" filter="url(#Ellipse_1)">
        <circle id="Ellipse_1-2" data-name="Ellipse 1" cx="20.95" cy="20.95" r="20.95" transform="translate(11 11)" fill="#163b72"/>
      </g>
      <path id="Path_7" data-name="Path 7" d="M910.262,205.482a2.7,2.7,0,0,0,2.151,1.057h8.879a1.182,1.182,0,0,0,0-2.363h-8.879a.355.355,0,0,1-.343-.444l1.458-5.559,3.448-1.277a1.181,1.181,0,0,0-.82-2.216l-1.9.7,1.441-5.5a1.181,1.181,0,0,0-2.285-.6l-1.861,7.1-3.373,1.25a1.181,1.181,0,1,0,.821,2.215l1.82-.674-1.037,3.958A2.694,2.694,0,0,0,910.262,205.482Z" transform="translate(-19 -14)" fill="#3b78ff"/>
    </g>
  </g>
</svg>
